<svg width="17" height="16" viewBox="0 0 17 16" fill="none" xmlns="http://www.w3.org/2000/svg">
<path d="M14.5006 3.98665C12.2806 3.76665 10.0473 3.65332 7.82064 3.65332C6.50064 3.65332 5.18064 3.71999 3.86064 3.85332L2.50064 3.98665" stroke="black" stroke-width="1.5" stroke-linecap="round" stroke-linejoin="round"/>
<path opacity="0.34" d="M6.16731 3.31331L6.31398 2.43998C6.42065 1.80665 6.50065 1.33331 7.62731 1.33331H9.37398C10.5006 1.33331 10.5873 1.83331 10.6873 2.44665L10.834 3.31331" stroke="black" stroke-width="1.5" stroke-linecap="round" stroke-linejoin="round"/>
<path d="M13.0673 6.09332L12.634 12.8067C12.5606 13.8533 12.5006 14.6667 10.6406 14.6667H6.36064C4.50064 14.6667 4.44064 13.8533 4.36731 12.8067L3.93398 6.09332" stroke="black" stroke-width="1.5" stroke-linecap="round" stroke-linejoin="round"/>
<path opacity="0.34" d="M7.38731 11H9.60731" stroke="black" stroke-width="1.5" stroke-linecap="round" stroke-linejoin="round"/>
<path opacity="0.34" d="M6.83397 8.33331H10.1673" stroke="black" stroke-width="1.5" stroke-linecap="round" stroke-linejoin="round"/>
</svg>
