<svg width="17" height="16" viewBox="0 0 17 16" fill="none" xmlns="http://www.w3.org/2000/svg">
<path d="M14.8398 3.98671C12.6198 3.76671 10.3865 3.65338 8.15984 3.65338C6.83984 3.65338 5.51984 3.72005 4.19984 3.85338L2.83984 3.98671" stroke="white" stroke-width="1.5" stroke-linecap="round" stroke-linejoin="round"/>
<path opacity="0.34" d="M6.50684 3.31337L6.6535 2.44004C6.76017 1.80671 6.84017 1.33337 7.96684 1.33337H9.7135C10.8402 1.33337 10.9268 1.83337 11.0268 2.44671L11.1735 3.31337" stroke="white" stroke-width="1.5" stroke-linecap="round" stroke-linejoin="round"/>
<path d="M13.4068 6.09338L12.9734 12.8067C12.9001 13.8534 12.8401 14.6667 10.9801 14.6667H6.7001C4.8401 14.6667 4.7801 13.8534 4.70677 12.8067L4.27344 6.09338" stroke="white" stroke-width="1.5" stroke-linecap="round" stroke-linejoin="round"/>
<path opacity="0.34" d="M7.72656 11.0001H9.94656" stroke="white" stroke-width="1.5" stroke-linecap="round" stroke-linejoin="round"/>
<path opacity="0.34" d="M7.17285 8.33337H10.5062" stroke="white" stroke-width="1.5" stroke-linecap="round" stroke-linejoin="round"/>
</svg>
