<svg width="209" height="180" viewBox="0 0 209 180" fill="none" xmlns="http://www.w3.org/2000/svg">
<path d="M81.8178 0.408691C81.1413 0.78923 81.099 1.33891 81.3527 5.77859C81.5641 9.9646 81.4796 10.9794 80.8876 12.121C80.4225 13.009 79.8728 13.4741 79.2809 13.4741C78.0124 13.4741 75.4754 11.6136 73.6572 9.41492C72.6847 8.231 71.7968 7.55447 71.1626 7.55447C70.0632 7.55447 69.2176 8.27328 69.2176 9.28807C69.2176 10.4297 72.3465 14.066 74.4606 15.4191C75.5177 16.0956 76.3211 16.8144 76.2365 17.0681C76.0251 17.8292 72.7693 18.2097 67.4417 17.9983C61.7758 17.7869 61.1838 17.956 61.1838 19.6896C61.1838 20.9158 62.114 21.381 65.8349 21.9729C69.3444 22.5649 74.5875 22.0575 78.9426 20.7044L81.5218 19.9011L82.9172 22.6917C85.0736 27.0468 85.1159 27.1314 83.4246 29.3301C79.9151 33.9389 80.5071 39.8585 84.8622 43.5794C86.8495 45.313 88.9636 46.0318 92.008 46.0318C93.1919 46.0318 94.1644 46.1164 94.1644 46.2009C94.1644 46.2855 95.0101 48.3574 96.0248 50.8098L97.8853 55.2917L96.3631 56.3065C95.4752 56.8562 93.9953 58.1247 93.065 59.1395L91.2892 60.9576L86.5958 59.0972C82.4521 57.4482 81.9024 57.1099 81.9024 56.222C81.9024 53.7696 80.1265 49.3299 78.4775 47.5117C74.4183 43.1143 67.6531 43.4103 63.5939 48.1882L61.9872 50.0487L58.3086 48.7802C55.7716 47.8923 54.63 47.3003 54.7146 46.8775C54.7146 46.5392 55.0528 44.8479 55.4334 43.1566C56.6173 37.6598 56.0253 27.4274 54.334 25.4401C53.7421 24.7213 52.093 24.7213 51.4588 25.5247C51.036 26.0321 51.0782 26.8777 51.6702 29.8375C52.6004 34.4886 52.2199 43.5371 51.0782 43.4948C50.9514 43.4526 50.148 42.5223 49.3446 41.3807C47.5265 38.8015 42.8754 35.0383 41.48 35.0383C40.3384 35.0383 39.4505 36.3913 39.831 37.4907C39.9579 37.8712 41.1841 39.0552 42.4948 40.0699C46.6808 43.2834 48.4567 46.2432 47.0614 47.6386C46.5117 48.1882 45.3278 48.3997 41.7337 48.4842C37.1249 48.6533 37.0826 48.6533 36.7867 49.7104C36.6598 50.3447 36.7444 51.1057 36.9558 51.4863C37.5477 52.4165 41.776 52.9239 44.8627 52.3742C46.258 52.1628 47.4842 52.0783 47.611 52.1628C48.2453 52.8393 43.2559 58.5898 39.4505 61.5073C38.0974 62.5221 37.886 62.9449 38.0974 63.706C38.5625 65.1859 39.6619 65.5242 41.3109 64.7208C43.8479 63.4946 49.0487 57.9556 51.2474 54.1501C52.3467 52.2474 53.4884 50.6829 53.7421 50.6829C53.9958 50.6829 55.7293 51.2326 57.5898 51.9091L60.9724 53.1353L61.2261 55.3763C61.9026 61.3382 66.7652 65.5242 72.431 64.9322C74.968 64.6785 77.9278 63.1563 79.2809 61.465C79.746 60.8731 80.3802 60.408 80.6762 60.408C81.0145 60.408 83.2132 61.2113 85.6233 62.1416C89.1327 63.5792 89.9361 64.0443 89.6824 64.594C89.5556 64.9745 89.3019 66.9618 89.1327 69.0336L88.8791 72.7968L84.3125 74.6995L79.746 76.6023L78.8157 75.7566C77.0822 74.1921 73.6572 72.5008 71.6277 72.2049C65.4121 71.1901 59.7039 76.9405 60.5073 83.3675L60.8033 85.5662L57.2092 87.3421L53.6152 89.118L52.093 86.6233C48.8372 81.2534 43.8902 76.4754 39.2813 74.2344L37.5055 73.3465L36.6175 74.2344C35.3068 75.5029 35.8564 76.56 38.8162 78.3781C40.2116 79.2238 42.368 80.9151 43.5942 82.099C45.7083 84.2132 48.499 87.7226 48.499 88.3146C48.499 88.4414 46.8077 88.4837 44.6935 88.3992C39.1968 88.1455 36.3638 88.5683 35.5605 89.7945C35.0531 90.5556 35.0108 90.9784 35.3913 91.6549C35.8142 92.5006 36.0678 92.5006 40.8035 92.2469C44.9895 92.0355 46.0043 92.12 47.1459 92.712C48.0339 93.1771 48.499 93.7268 48.499 94.3188C48.499 95.5872 46.6385 98.1242 44.4398 99.9424C43.2559 100.915 42.5794 101.803 42.5794 102.437C42.5794 103.536 43.2982 104.382 44.313 104.382C45.4546 104.382 49.0909 101.253 50.444 99.139C51.1205 98.0819 51.8393 97.2785 52.093 97.3631C52.8541 97.5745 53.2347 100.83 53.0232 106.158C52.8118 111.824 52.981 112.416 54.7146 112.416C55.9408 112.416 56.4059 111.486 56.9978 107.765C57.5898 104.255 57.0824 99.0121 55.7293 94.657L54.926 92.0778L57.7166 90.6824C62.0718 88.526 62.1563 88.4837 64.355 90.175C68.9639 93.6845 74.8834 93.0926 78.6043 88.7374C80.3379 86.7501 81.0567 84.636 81.0567 81.5916C81.0567 80.4077 81.1413 79.4352 81.2259 79.4352C81.3104 79.4352 83.3823 78.5896 85.8347 77.5748L90.3167 75.7143L91.4583 77.4479C92.0925 78.4204 93.361 79.9003 94.2912 80.746L95.9826 82.3104L94.1221 87.0038C92.4308 91.2321 92.1348 91.6972 91.2046 91.6972C89.3019 91.7395 84.5662 93.2194 83.3823 94.1919C78.1815 98.2511 78.0969 105.651 83.2132 110.006L85.0736 111.612L83.8051 115.291C82.9172 117.828 82.3252 118.97 81.9024 118.885C81.5641 118.885 79.8728 118.547 78.1815 118.166C72.6847 116.982 62.4523 117.574 60.465 119.266C59.7462 119.858 59.7462 121.507 60.5496 122.141C61.057 122.564 61.9026 122.521 64.8624 121.929C69.5135 120.999 78.562 121.38 78.5198 122.521C78.5198 122.648 77.6318 123.325 76.5748 124.044C74.2069 125.65 70.0632 130.724 70.0632 132.077C70.0632 133.261 71.4163 134.149 72.5156 133.769C72.8962 133.642 74.0801 132.416 75.0949 131.105C78.3084 126.919 81.2682 125.143 82.6635 126.538C83.2132 127.088 83.4246 128.314 83.5937 131.993L83.8051 136.728L84.989 136.855C85.6656 136.94 86.4267 136.813 86.7226 136.559C87.526 135.883 87.9065 131.147 87.3992 128.483C87.1455 127.257 87.0609 126.115 87.1877 126.031C87.8643 125.354 93.5724 130.301 96.5322 134.149C97.547 135.502 97.9699 135.714 98.7309 135.502C100.211 135.037 100.549 133.938 99.7457 132.289C98.5195 129.752 92.9805 124.551 89.2173 122.352C87.2723 121.253 85.7078 120.111 85.7078 119.858C85.7078 119.604 86.2575 117.87 86.934 116.01L88.1602 112.627L90.4012 112.374C93.361 111.993 94.5872 111.528 96.4477 109.837C98.9001 107.722 99.8303 105.524 99.8303 102.057C99.8303 98.6739 98.8578 96.3483 96.7014 94.5302C96.0248 93.9382 95.4329 93.1771 95.4329 92.8811C95.4329 92.5852 96.2363 90.3865 97.1665 87.9763C98.6041 84.4669 99.0692 83.6635 99.6189 83.9172C99.9994 84.044 101.987 84.2977 104.059 84.4669L107.822 84.7206L109.724 89.2448L111.585 93.7691L110.697 94.953C107.188 99.4773 106.384 102.141 107.441 105.82C108.837 110.555 113.53 113.684 118.392 113.092L120.591 112.796L122.367 116.39L124.143 119.942L120.929 121.972C116.913 124.466 112.219 129.16 110.147 132.712C109.259 134.234 108.541 135.671 108.541 135.967C108.541 136.728 110.401 137.87 111.204 137.574C111.543 137.405 112.557 136.179 113.403 134.783C114.249 133.388 115.94 131.232 117.124 130.005C119.196 127.891 122.748 125.101 123.297 125.101C123.466 125.101 123.509 127.003 123.424 129.329C123.17 134.953 123.551 137.193 124.819 138.039C125.581 138.547 126.003 138.589 126.68 138.208C127.526 137.785 127.526 137.532 127.272 132.796C127.06 128.61 127.145 127.595 127.737 126.454C128.202 125.566 128.752 125.101 129.344 125.101C130.654 125.101 133.107 126.877 135.179 129.371C136.616 131.062 137.124 131.401 137.843 131.189C139.999 130.513 139.914 128.948 137.547 126.2C136.532 125.016 134.925 123.578 133.953 122.986C133.022 122.395 132.303 121.76 132.388 121.507C132.599 120.745 135.855 120.365 141.183 120.576C146.849 120.788 147.441 120.619 147.441 118.885C147.441 117.659 146.51 117.194 142.79 116.602C139.28 116.01 134.037 116.517 129.682 117.87L127.103 118.674L125.707 115.883C123.551 111.528 123.509 111.443 125.2 109.245C128.709 104.636 128.117 98.7162 123.762 94.9953C121.775 93.2617 119.661 92.5429 116.617 92.5429C115.433 92.5429 114.46 92.4583 114.46 92.3737C114.46 92.2892 113.614 90.2173 112.6 87.7649L110.739 83.2829L112.261 82.2682C113.149 81.7185 114.629 80.45 115.559 79.4352L117.335 77.6171L122.029 79.4775C126.003 81.042 126.722 81.4648 126.722 82.2682C126.722 84.0018 128.075 88.526 129.048 89.9213C132.769 95.3758 140.549 95.6295 145.031 90.3865L146.637 88.526L150.316 89.7945C152.853 90.6824 153.995 91.2744 153.91 91.6972C153.91 92.0355 153.572 93.7268 153.191 95.4181C152.007 100.915 152.599 111.147 154.291 113.135C154.882 113.853 156.532 113.853 157.166 113.05C157.589 112.543 157.546 111.697 156.954 108.737C156.024 104.086 156.405 95.0376 157.546 95.0798C157.673 95.0798 158.392 95.9678 159.068 97.0249C160.675 99.3927 165.749 103.536 167.102 103.536C168.286 103.536 169.174 102.183 168.794 101.084C168.667 100.703 167.44 99.5195 166.13 98.5047C161.944 95.2913 160.168 92.3315 161.563 90.9361C162.113 90.3865 163.339 90.175 167.018 90.0059L171.753 89.7945L171.88 88.6106C171.965 87.9341 171.838 87.173 171.584 86.877C170.908 86.0736 166.172 85.6931 163.508 86.2005C162.282 86.4542 161.14 86.5387 161.056 86.4119C160.379 85.7353 165.326 80.0272 169.174 77.0674C170.527 76.0526 170.739 75.6298 170.527 74.8687C170.062 73.3888 168.963 73.0505 167.314 73.8539C164.777 75.0801 159.576 80.6191 157.377 84.3823C156.278 86.3273 155.136 87.8918 154.882 87.8918C154.629 87.8918 152.895 87.3421 151.035 86.6656L147.652 85.4394L147.398 83.1984C146.933 78.9278 144.439 75.6298 140.506 74.1499C136.912 72.7545 131.965 74.023 129.555 76.8982C128.963 77.5748 128.202 78.1667 127.906 78.1667C127.61 78.1667 125.411 77.3634 123.001 76.4331C119.027 74.8264 118.646 74.5727 118.9 73.7693C119.069 73.2619 119.28 71.3592 119.365 69.541C119.45 67.7229 119.661 66.0739 119.83 65.8624C119.999 65.6933 122.113 64.7631 124.523 63.7906L128.879 61.9724L129.809 62.8181C130.654 63.6215 131.458 64.1288 134.502 65.7779C136.067 66.6235 138.815 66.7504 141.098 66.0739C145.58 64.7631 148.709 59.9006 148.117 55.2072L147.821 53.0085L151.415 51.2326L155.009 49.4567L156.532 51.9514C159.787 57.3213 164.734 62.0993 169.343 64.3403L171.119 65.2282L172.007 64.3403C173.318 63.0718 172.768 62.0147 169.808 60.1965C168.413 59.3509 166.257 57.6596 165.03 56.4757C162.916 54.3615 160.126 50.8521 160.126 50.2601C160.126 50.1332 161.817 50.091 163.931 50.1755C169.428 50.4292 172.261 50.0064 173.064 48.7802C173.571 48.0191 173.614 47.5963 173.233 46.9198C172.81 46.0741 172.557 46.0741 167.821 46.3278C163.635 46.5392 162.62 46.4546 161.479 45.8627C160.591 45.3976 160.126 44.8479 160.126 44.2559C160.126 42.9874 161.986 40.4505 164.185 38.6323C165.369 37.6598 166.045 36.7719 166.045 36.1376C166.045 35.0383 165.326 34.1926 164.312 34.1926C163.17 34.1926 159.534 37.3216 158.181 39.4357C157.504 40.4928 156.785 41.2961 156.532 41.2116C155.77 41.0002 155.39 37.7444 155.601 32.4168C155.813 26.7509 155.644 26.1589 153.91 26.1589C152.684 26.1589 152.219 27.0891 151.627 30.81C151.035 34.3195 151.542 39.5625 152.895 43.9177L153.699 46.4969L150.908 47.8923C146.553 50.0487 146.468 50.091 144.27 48.3997C139.661 44.8902 133.741 45.4821 130.02 49.8373C128.329 51.7823 127.568 53.9387 127.568 56.8985V59.0126L123.044 60.9154C118.519 62.8181 118.477 62.8604 117.843 62.0147C117.505 61.5496 116.194 60.0274 114.925 58.6744L112.684 56.222L114.502 51.5709C116.067 47.5963 116.49 46.8775 117.293 46.8775C118.604 46.8775 122.621 45.7781 124.058 45.017C124.735 44.6788 126.003 43.6217 126.849 42.6915C130.485 38.6323 129.851 32.3745 125.411 28.569L123.551 26.9623L124.819 23.2837C125.707 20.7467 126.299 19.6051 126.722 19.6896C127.06 19.6896 128.752 20.0279 130.443 20.4084C135.94 21.5924 146.172 21.0004 148.16 19.3091C148.878 18.7171 148.878 17.0681 148.075 16.4339C147.568 16.011 146.722 16.0533 143.762 16.6453C139.111 17.5755 130.062 17.195 130.105 16.0533C130.105 15.9265 130.993 15.2077 132.05 14.5311C134.418 12.9244 138.561 7.85046 138.561 6.49741C138.561 5.31349 137.208 4.42555 136.109 4.80609C135.728 4.93294 134.544 6.15915 133.53 7.46991C130.316 11.6559 127.356 13.4318 125.961 12.0365C125.369 11.4445 125.242 10.3874 125.2 6.45512C125.158 1.25435 124.989 0.78923 123.001 0.78923C122.409 0.78923 121.902 1.12749 121.69 1.71945C121.014 3.53761 120.803 7.76588 121.225 10.0492C121.437 11.3176 121.564 12.4593 121.437 12.5438C120.718 13.3049 114.756 8.14644 112.727 5.01752C112.008 3.87587 111.12 2.86108 110.739 2.69196C109.682 2.31142 108.541 2.90337 108.287 4.00272C107.695 6.37056 113.657 12.8398 119.576 16.307C121.437 17.3641 122.917 18.4634 122.917 18.7171C122.917 18.9708 122.367 20.7044 121.69 22.5649L120.464 25.9475L118.223 26.2012C113.953 26.6663 110.655 29.161 109.175 33.0933C107.779 36.6873 109.048 41.6344 111.923 44.0445C112.6 44.6365 113.192 45.3976 113.192 45.6936C113.192 45.9895 112.388 48.1882 111.458 50.5984C109.851 54.5729 109.598 54.9535 108.794 54.6998C108.287 54.5307 106.384 54.3192 104.566 54.2347C102.748 54.1501 101.099 53.9387 100.887 53.7696C100.718 53.6004 99.788 51.4863 98.8155 49.0762L96.9973 44.721L97.843 43.7908C98.3081 43.2834 99.2806 41.7613 100.042 40.4505C104.185 33.0933 98.5195 24.4676 90.2321 25.4824L88.0334 25.7784L86.2575 22.1843L84.4816 18.6326L87.6951 16.603C91.712 14.1083 96.4054 9.41492 98.5195 5.86316C99.3652 4.34099 100.084 2.90337 100.084 2.60739C100.084 1.8463 98.2235 0.704666 97.4202 1.00064C97.0819 1.16977 96.0671 2.39598 95.2215 3.79131C94.3758 5.18665 92.6845 7.34306 91.5006 8.56926C89.4287 10.6411 85.877 13.4741 85.3273 13.4741C85.2005 13.4741 85.0736 10.8102 85.0736 7.51219C85.0736 1.76173 85.0313 1.55032 84.0588 0.746948C82.9172 -0.183273 82.7903 -0.183273 81.8178 0.408691ZM94.5027 32.2899C97.9699 35.2074 95.9403 40.3236 91.3737 40.3236C89.3442 40.3236 88.0334 39.3511 87.1032 37.237C85.285 32.9664 90.9086 29.2455 94.5027 32.2899ZM122.282 33.347C123.34 34.404 123.551 34.9537 123.551 36.5605C123.551 38.2518 123.34 38.6746 121.944 39.9854C120.507 41.2961 120.126 41.423 118.773 41.1693C115.475 40.5773 113.572 37.9558 114.46 35.292C114.925 33.8967 116.236 32.4168 117.42 31.9516C118.731 31.402 120.972 32.0785 122.282 33.347ZM73.615 50.4715C75.4754 51.3594 76.5325 53.2199 76.1519 55.1226C75.56 58.3784 72.6847 60.1543 69.8941 58.9703C66.8074 57.7019 65.8772 53.981 68.0336 51.6131C69.7672 49.795 71.4163 49.4567 73.615 50.4715ZM139.576 52.1205C141.479 52.9239 142.367 54.3192 142.367 56.4334C142.367 60.9154 136.743 62.9449 134.248 59.4355C132.303 56.7294 133.191 53.4736 136.236 52.1205C137.843 51.4017 137.885 51.4017 139.576 52.1205ZM108.118 60.0274C110.655 61.1691 112.261 62.7335 113.445 65.2705C115.221 69.0336 114.587 72.7545 111.627 76.0526C110.316 77.5325 109.175 78.2936 107.61 78.8433C99.6612 81.4648 92.3462 74.4036 94.5872 66.3276C96.1094 60.7885 102.875 57.6596 108.118 60.0274ZM72.9807 77.8708C75.3908 79.097 76.1519 83.0715 74.4183 85.0588C71.4163 88.4414 66.2578 86.6233 66.2578 82.1836C66.2578 78.5473 69.8518 76.2217 72.9807 77.8708ZM139.83 80.2386C142.325 82.0145 142.494 85.1011 140.21 87.2998C139.196 88.2723 138.561 88.526 137.039 88.526C135.348 88.526 134.925 88.3146 133.614 86.877C132.346 85.4817 132.177 85.0588 132.346 83.7903C133.022 79.7312 136.701 77.9976 139.83 80.2386ZM92.3885 98.3356C92.9382 98.6739 93.657 99.6464 94.0376 100.45C94.5449 101.761 94.5872 102.183 94.0798 103.494C92.7691 106.919 88.9213 107.807 86.3421 105.228C84.0588 102.902 84.9045 98.8853 88.0334 97.5745C89.0905 97.1517 91.0778 97.49 92.3885 98.3356ZM120.084 99.1813C123.466 102.226 121.648 107.342 117.166 107.342C112.261 107.342 110.612 100.957 114.968 98.7162C116.617 97.8705 118.815 98.0819 120.084 99.1813Z" fill="#FFAD00"/>
<path d="M0 169.627V180H2.91375H5.82751V176.294V172.611L8.48485 172.471C12.4242 172.284 14.2424 171.305 15.5478 168.625C17.2261 165.221 15.5245 161.049 11.958 159.72C10.8392 159.301 10.1399 159.254 5.3613 159.254H0V169.627ZM10.4429 165.758C10.5594 166.55 10.1632 166.713 7.87879 166.713H5.82751V165.897V165.058L8.11189 165.128C10.303 165.198 10.373 165.221 10.4429 165.758Z" fill="#FFAD00"/>
<path d="M25.641 159.627C22.9137 160.373 20.303 162.587 19.0443 165.245C18.345 166.76 18.2983 166.97 18.2983 169.627C18.2983 172.238 18.345 172.518 18.9743 173.823C19.8834 175.664 22.2844 178.065 24.1258 178.974C25.4312 179.604 25.7109 179.65 28.3216 179.65C30.979 179.65 31.1888 179.604 32.7039 178.904C37.2028 176.783 39.5804 171.795 38.345 167.11C37.8554 165.175 37.1795 164.009 35.7575 162.518C33.1002 159.72 29.3007 158.648 25.641 159.627ZM30.4895 165.525C32.0513 166.317 32.8671 167.692 32.8671 169.487C32.8671 171.515 32.0046 172.89 30.1865 173.73C26.5035 175.431 22.5874 171.655 24.1492 167.925C24.592 166.853 25.5478 165.828 26.4568 165.408C27.4825 164.942 29.4638 165.012 30.4895 165.525Z" fill="#FFAD00"/>
<path d="M40.3264 169.627V180H45.4546H50.5828V177.086V174.172H48.3684H46.1539V166.713V159.254H43.2402H40.3264V169.627Z" fill="#FFAD00"/>
<path d="M52.2144 169.627V180H57.3426H62.4708V177.086V174.172H60.2563H58.0419V166.713V159.254H55.1281H52.2144V169.627Z" fill="#FFAD00"/>
<path d="M64.1025 169.627V180H69.2307H74.3589V177.086V174.172H72.1445H69.93V173.357V172.541H72.1445H74.3589V169.627V166.713H72.1445H69.93V165.897V165.082H72.1445H74.3589V162.168V159.254H69.2307H64.1025V169.627Z" fill="#FFAD00"/>
<path d="M75.9907 169.627V180H78.9045H81.8182V174.709C81.8182 171.562 81.9115 169.51 82.028 169.65C82.1446 169.767 83.2168 172.145 84.4056 174.918L86.5502 180H89.4406H92.3077V169.627V159.254H89.394H86.4802L86.4336 164.499L86.3637 169.767L84.1492 164.569L81.9115 159.371L78.9511 159.301L75.9907 159.231V169.627Z" fill="#FFAD00"/>
<path d="M101.399 169.627V180H104.312H107.226V176.27V172.541H109.441H111.655V169.627V166.713H109.441H107.226V165.897V165.082H109.441H111.655V162.168V159.254H106.527H101.399V169.627Z" fill="#FFAD00"/>
<path d="M113.287 169.627V180H116.2H119.114V169.627V159.254H116.2H113.287V169.627Z" fill="#FFAD00"/>
<path d="M120.746 169.627V180H123.66H126.573V174.709C126.573 171.562 126.667 169.51 126.783 169.65C126.9 169.767 127.972 172.145 129.161 174.918L131.305 180H134.196H137.063V169.627V159.254H134.149H131.235L131.189 164.499L131.119 169.767L128.904 164.569L126.667 159.371L123.706 159.301L120.746 159.231V169.627Z" fill="#FFAD00"/>
<path d="M143.939 159.534C143.893 159.697 142.681 164.033 141.259 169.161C139.837 174.289 138.578 178.765 138.462 179.114L138.252 179.767H141.166H144.079L144.312 179.068L144.569 178.368H147.692H150.793L150.956 179.184L151.096 180H154.056H157.04L154.312 169.674L151.585 159.371L147.809 159.301C144.918 159.254 144.033 159.301 143.939 159.534ZM148.578 170.047C148.905 171.329 149.184 172.448 149.184 172.564C149.184 172.681 148.485 172.774 147.646 172.774C146.294 172.774 146.107 172.727 146.201 172.354C146.27 172.145 146.62 170.886 146.97 169.557C147.366 168.135 147.692 167.273 147.809 167.459C147.902 167.622 148.252 168.788 148.578 170.047Z" fill="#FFAD00"/>
<path d="M158.042 169.627V180H160.956H163.869V174.709C163.869 171.562 163.963 169.51 164.079 169.65C164.196 169.767 165.268 172.145 166.457 174.918L168.601 180H171.492H174.359V169.627V159.254H171.445H168.532L168.485 164.499L168.415 169.767L166.201 164.569L163.963 159.371L161.002 159.301L158.042 159.231V169.627Z" fill="#FFAD00"/>
<path d="M183.683 159.627C180.956 160.373 178.345 162.587 177.086 165.245C176.387 166.76 176.34 166.97 176.34 169.627C176.34 172.238 176.387 172.518 177.016 173.823C177.925 175.664 180.326 178.065 182.168 178.974C183.473 179.604 183.753 179.65 186.364 179.65C189.021 179.65 189.231 179.604 190.723 178.904C193.73 177.483 196.014 174.476 196.597 171.189L196.737 170.443H193.846C190.979 170.443 190.956 170.443 190.816 171.026C190.606 171.888 189.301 173.263 188.228 173.73C184.452 175.455 180.513 171.515 182.261 167.762C183.1 165.944 184.476 165.082 186.504 165.082C188.485 165.082 190.373 166.434 190.793 168.159L190.956 168.811H193.846H196.737L196.597 168.042C196.177 165.688 195.152 163.776 193.403 162.121C190.746 159.604 187.179 158.695 183.683 159.627Z" fill="#FFAD00"/>
<path d="M198.368 169.627V180H203.496H208.625V177.086V174.172H206.41H204.196V173.357V172.541H206.41H208.625V169.627V166.713H206.41H204.196V165.897V165.082H206.41H208.625V162.168V159.254H203.496H198.368V169.627Z" fill="#FFAD00"/>
</svg>
